<svg xmlns="http://www.w3.org/2000/svg" xmlns:xlink="http://www.w3.org/1999/xlink" viewBox="0 0 1920 1080">
  <defs>
    <radialGradient id="base" cx="50%" cy="45%" r="82%">
      <stop offset="0" stop-color="#fffdf5"/>
      <stop offset=".45" stop-color="#edf7ff"/>
      <stop offset=".76" stop-color="#f7edff"/>
      <stop offset="1" stop-color="#dcecff"/>
    </radialGradient>
    <linearGradient id="ray" x1="0" y1="1" x2="1" y2="0">
      <stop stop-color="#f1249b"/>
      <stop offset=".24" stop-color="#ff9735"/>
      <stop offset=".48" stop-color="#e6d530"/>
      <stop offset=".7" stop-color="#37cda8"/>
      <stop offset="1" stop-color="#4169e8"/>
    </linearGradient>
    <filter id="blur"><feGaussianBlur stdDeviation="28"/></filter>
    <filter id="grain"><feTurbulence type="fractalNoise" baseFrequency=".8" numOctaves="2" stitchTiles="stitch"/><feComponentTransfer><feFuncA type="table" tableValues="0 .08"/></feComponentTransfer></filter>
  </defs>
  <rect width="1920" height="1080" fill="url(#base)"/>
  <ellipse cx="330" cy="102" rx="560" ry="280" fill="#ffcf4a" opacity=".28" filter="url(#blur)"/>
  <ellipse cx="1550" cy="930" rx="510" ry="320" fill="#2bb7e9" opacity=".18" filter="url(#blur)"/>
  <path d="M-170 874C227 320 769 1056 1116 490s637-333 962-180" fill="none" stroke="url(#ray)" stroke-width="52" opacity=".23" filter="url(#blur)"/>
  <path d="M-170 874C227 320 769 1056 1116 490s637-333 962-180" fill="none" stroke="url(#ray)" stroke-width="8" opacity=".75"/>
  <path d="M32 214C388 620 834 42 1221 408s588 368 822 553" fill="none" stroke="#2356d8" stroke-width="2" opacity=".18"/>
  <path d="M-16 989C532 620 964 1130 1449 698s366-115 545-370" fill="none" stroke="#ed1c8e" stroke-width="2" opacity=".22"/>
  <rect width="1920" height="1080" filter="url(#grain)" opacity=".25"/>
</svg>
